<svg width="1792" height="1792" viewBox="0 0 1792 1792" xmlns="http://www.w3.org/2000/svg"><path d="M1253 1429q0 14-12 29-52 59-147.5 83T897 1565q-252 0-346-107-12-15-12-29 0-17 12-29.5t29-12.5q15 0 30 12 58 49 125.5 66t159.5 17 160-17 127-66q15-12 30-12 17 0 29 12.5t12 29.5zm-531-391q0 61-43 104t-104 43q-60 0-104.5-43.5T426 1038q0-61 44-105t105-44 104 44 43 105zm644 0q0 61-43 104t-104 43q-60 0-104.5-43.5T1070 1038q0-61 44-105t105-44 104 44 43 105zM159 743q-39-27-88-27-66 0-113 47t-47 113q0 72 54 121 53-141 194-254zm1605 411q0-222-249-387-128-85-291.5-126.5T892 599t-331.5 41.5T268 767Q19 932 19 1154t249 387q129 85 292.5 126.5T892 1709t331.5-41.5T1515 1541q249-165 249-387zm117-278q0-66-47-113t-113-47q-50 0-93 30 140 114 192 256 61-48 61-126zm-144-675q0-49-34.5-83.5T1620 83q-49 0-83.5 34.5T1502 201q0 48 34.5 82.5T1620 318q48 0 82.5-34.5T1737 201zm227 675q0 65-33 122t-89 90q5 35 5 66 0 139-79 255.5T1560 1611q-140 92-313.5 136.5T892 1792t-355-44.5T223 1611q-129-85-208-201.5T-64 1154q0-36 6-71-53-33-83.5-88.5T-172 876q0-100 71-171.5T71 633q91 0 159 60 265-170 638-177l144-456q10-29 40-29 24 0 384 90 24-55 74-88t110-33q82 0 141 59t59 142-59 141.5-141 58.5q-83 0-141.5-58.5T1419 202l-339-80-125 395q349 15 603 179 71-63 163-63 101 0 172 71.5t71 171.5z" fill="#fff"/></svg>