<svg width="1792" height="1792" viewBox="0 0 1792 1792" xmlns="http://www.w3.org/2000/svg"><path d="M1024 896q0-104-40.5-198.5T874 534 710.5 424.5 512 384t-198.5 40.5T150 534 40.5 697.5 0 896t40.5 198.5T150 1258t163.5 109.5T512 1408t198.5-40.5T874 1258t109.5-163.5T1024 896zm768 0q0-104-40.5-198.5T1642 534t-163.5-109.5T1280 384H894q119 90 188.5 224t69.5 288-69.5 288T894 1408h386q104 0 198.5-40.5T1642 1258t109.5-163.5T1792 896zm128 0q0 130-51 248.5t-136.5 204-204 136.5-248.5 51H512q-130 0-248.5-51t-204-136.5-136.5-204-51-248.5 51-248.5 136.5-204 204-136.5T512 256h768q130 0 248.5 51t204 136.5 136.5 204 51 248.5z" fill="#fff"/></svg>