<svg xmlns="http://www.w3.org/2000/svg" fill="#1f79f2" viewBox="0 0 1000 1000"><path d="M730.366 476.945h109.48V142.416h-109.48zm21.038-304.771h35.985v27.681h-35.985zm0 57.3h35.985v27.682h-35.985zm0 57.992h35.985v27.681h-35.985zm0 57.44h35.985v27.68h-35.985z"/><path d="M610.367 33.075v36.816H413.415v32.387H276.253v35.156h-75.985v27.68h75.985v34.741h137.162v32.941h196.952v338.82H174.94V33.075H50.512v928.71h112.94L236.53 796.25h541.725l73.078 165.535h112.94V33.076zm92.317 81.66h164.844v389.891H702.684zm-261.588 90.38V97.572h169.271v107.543zm495.496 728.988h-67.127l-73.079-165.535H218.4l-73.078 165.535H78.193V599.297h858.399z"/></svg>