<svg xmlns="http://www.w3.org/2000/svg" viewBox="0 0 1000 1000" fill="#1f79f2"><path d="M395.16 59c0 .68 15.5 24.16 34.19 52.42l34.19 51.28v75.2h54.7v-75.2l34.19-51.28c18.92-28.26 34.19-51.74 34.19-52.42 0-.68-13.67-1.14-30.08-1.14h-30.31l-17.09 29.4c-9.34 16.18-17.78 28.94-18.46 28.49-.91-.46-9.12-13.67-18.23-29.4l-16.86-28.49h-30.08c-16.67 0-30.35.46-30.35 1.14zm54.47 242.49l-5.47 4.33-1.14 129.45-1.14 129.45L335.9 625.8c-58.34 33.73-108.03 63.36-110.31 65.64-7.75 7.75-5.47 17.32 10.03 43.76 7.75 13.45 15.73 25.75 17.55 27.35 8.66 7.06 16.18 3.64 125.58-59.49 66.78-38.74 108.94-61.76 111.22-60.85 1.82.68 50.82 28.72 108.71 62.22 107.12 61.76 114.41 65.18 123.07 57.89 5.24-4.33 31.22-49.45 32.59-56.98.91-4.56 0-7.98-4.1-12.3-2.74-3.42-52.87-33.73-111.22-67.23l-105.97-61.08-1.14-127.63c-1.14-131.27-1.37-135.15-10.48-138.57-1.82-.68-17.78-1.37-35.1-1.37-27.58 0-32.14.46-36.7 4.33zM21.4 779.19v19.37l44.21.46 44.21.68-49.91 52.42L10 904.54v35.33h170.93v-38.74l-51.05-.46-51.05-.68 50.14-51.96 49.91-52.19-.68-17.32-.68-17.55-77.94-.68-78.17-.46v19.36zm780.8-14.36c1.14 1.6 13.45 20.74 27.8 42.62 14.13 21.65 25.3 40.79 24.84 42.16-.68 1.59-13.9 22.33-29.86 46.49-15.72 24.16-28.71 44.44-28.71 44.9 0 .68 13.67 1.14 30.31 1.14h30.32l16.64-27.35c9.34-15.27 17.55-27.81 18.23-28.26.68-.45 9.12 11.85 18.46 27.35l17.09 28.03 31.45.23H990l-5.92-9.8c-3.42-5.24-17.32-25.98-30.77-46.26l-24.39-36.69 27.12-41.93c14.81-23.02 27.12-42.62 27.12-43.76 0-.91-13.22-1.6-29.4-1.6h-29.4l-15.5 27.58c-10.71 19.37-15.73 26.67-17.09 24.39-1.14-1.6-8.43-13.9-16.18-27.58l-14.13-24.39h-30.54c-23.7-.01-30.08.68-28.72 2.73z"/></svg>