<svg width="1792" height="1792" viewBox="0 0 1792 1792" xmlns="http://www.w3.org/2000/svg"><path d="M506 1152H192q-40 0-57.5-35t6.5-67l188-251q-65-31-137-31-132 0-226 94t-94 226 94 226 226 94q115 0 203-72.5T506 1152zm-186-128h186q-18-85-75-148zm480 0l288-384H608l-99 132q105 103 126 252h165zm1120 64q0-132-94-226t-226-94q-60 0-121 24l174 260q15 23 10 49t-27 40q-15 11-36 11-35 0-53-29l-174-260q-93 95-93 225 0 132 94 226t226 94 226-94 94-226zm128 0q0 185-131.5 316.5T1600 1536t-316.5-131.5T1152 1088q0-97 39.5-183.5T1301 755l-65-98-353 469q-18 26-51 26H635q-23 164-149 274t-294 110q-185 0-316.5-131.5T-256 1088t131.5-316.5T192 640q114 0 215 55l137-183H320q-26 0-45-19t-19-45 19-45 45-19h384v128h435l-85-128H832q-26 0-45-19t-19-45 19-45 45-19h256q33 0 53 28l267 400q91-44 192-44 185 0 316.5 131.5T2048 1088z"/></svg>