<svg width="1792" height="1792" viewBox="0 0 1792 1792" xmlns="http://www.w3.org/2000/svg"><path d="M768 1088V960q0-14-9-23t-23-9H544V736q0-14-9-23t-23-9H384q-14 0-23 9t-9 23v192H160q-14 0-23 9t-9 23v128q0 14 9 23t23 9h192v192q0 14 9 23t23 9h128q14 0 23-9t9-23v-192h192q14 0 23-9t9-23zm576 64q0-53-37.5-90.5T1216 1024t-90.5 37.5-37.5 90.5 37.5 90.5 90.5 37.5 90.5-37.5 37.5-90.5zm256-256q0-53-37.5-90.5T1472 768t-90.5 37.5T1344 896t37.5 90.5 90.5 37.5 90.5-37.5T1600 896zm256 128q0 212-150 362t-362 150q-192 0-338-128H786q-146 128-338 128-212 0-362-150t-150-362T86 662t362-150h896q212 0 362 150t150 362z"/></svg>