<svg width="1792" height="1792" viewBox="0 0 1792 1792" xmlns="http://www.w3.org/2000/svg"><path d="M602 587q19 61 31 123.5T650 852t-14 159-62 145q-21-81-67-157t-95.5-127-99-90.5T234 724t-33-19q-62-34-81.5-100T134 477t101-81.5T364 410q138 83 238 177zm325-287q11 25 20.5 46T984 446.5t42.5 150.5 25.5 179.5 0 205.5-47.5 209.5T899 1400q-51 72-138 72-54 0-98-31-57-40-69-109t28-127q60-85 81-195t13-199.5T684 630t-39-128-22-52q-31-63-8.5-129.5T700 223q34-17 75-17 47 0 88.5 25t63.5 69zm321 669q-17 160-72 311-17-131-63-246 25-174-5-361-27-178-94-342 114 90 212 211 9 37 15 80 26 179 7 347zm272-873q9 17 23.5 49.5T1587 263t50.5 178 34 227.5 5 269-47 300T1517 1561q-22 48-66 75.5t-95 27.5q-39 0-74-16-67-31-92.5-100t4.5-136q58-126 90-257.5t37.5-239.5-3.5-213.5-26.5-180.5-38.5-138.5-32.5-90T1205 260q-34-65-11.5-135.5T1281 20q37-20 81-20 49 0 91.5 25.5T1520 96z"/></svg>