<svg width="1792" height="1792" viewBox="0 0 1792 1792" xmlns="http://www.w3.org/2000/svg"><path d="M799 796q0 36 32 70.5t77.5 68T999 1008t77 104 32 142q0 90-48 173-72 122-211 179.5T551 1664q-132 0-246.5-41.5T133 1485q-37-60-37-131 0-81 44.5-150T259 1089q131-82 404-100-32-42-47.5-74T600 842q0-36 21-85-46 4-68 4-148 0-249.5-96.5T202 420q0-82 36-159t99-131q77-66 182.5-98T737 0h418l-138 88H886q74 63 112 133t38 160q0 72-24.5 129.5t-59 93-69.5 65-59.5 61.5-24.5 66zm-146-96q38 0 78-16.5t66-43.5q53-57 53-159 0-58-17-125t-48.5-129.5T700 123 583 82q-42 0-82.5 19.5T435 154q-47 59-47 160 0 46 10 97.5t31.5 103 52 92.5 75 67 96.5 26zm2 873q58 0 111.5-13t99-39 73-73 27.5-109q0-25-7-49t-14.5-42-27-41.5-29.5-35-38.5-34.5-36.5-29-41.5-30-36.5-26q-16-2-48-2-53 0-105 7t-107.5 25-97 46-68.5 74.5-27 105.5q0 70 35 123.5t91.5 83 119 44T655 1573zm810-876h213v108h-213v219h-105V805h-212V697h212V480h105v217z"/></svg>