<svg width="1792" height="1792" viewBox="0 0 1792 1792" xmlns="http://www.w3.org/2000/svg"><path d="M1335 832q0 35-25 60.5t-61 25.5H547q-36 0-61-25.5T461 832t25-60.5 61-25.5h702q36 0 61 25.5t25 60.5zm214 0q0-86-23-170H544q-36 0-61-25t-25-60q0-36 25-61t61-25h908q-88-143-235-227t-320-84q-177 0-327.5 87.5T331.5 505 244 832q0 86 23 170h982q36 0 61 25t25 60q0 36-25 61t-61 25H341q88 143 235.5 227t320.5 84q132 0 253-51.5t208-139 139-208 52-253.5zm371-255q0 35-25 60t-61 25h-131q17 85 17 170 0 167-65.5 319.5t-175.5 263-262.5 176T897 1656q-246 0-448.5-133T147 1173H-42q-36 0-61-25t-25-61q0-35 25-60t61-25H90q-17-85-17-170 0-167 65.5-319.5t175.5-263 262.5-176T897 8q245 0 447.5 133T1646 491h188q36 0 61 25t25 61z"/></svg>