<svg width="1792" height="1792" viewBox="0 0 1792 1792" xmlns="http://www.w3.org/2000/svg"><path d="M1672 772q111 46 179.5 145.5T1920 1139q0 164-118 280.5T1517 1536q-4 0-11.5-.5t-10.5-.5H278q-170-10-288-125.5T-128 1129q0-110 55-203T74 779q-12-39-12-82 0-115 82-196t199-81q95 0 172 58 75-154 222.5-248t326.5-94q166 0 306 80.5T1591.5 435t81.5 301q0 6-.5 18t-.5 18zM340 1038q0 122 84 193t208 71q137 0 240-99-16-20-47.5-56.5T781 1096q-67 65-144 65-55 0-93.5-33.5T505 1040q0-53 38.5-87t91.5-34q44 0 84.5 21t73 55 65 75 69 82 77 75 97 55 121.5 21q121 0 204.5-71.5T1510 1041q0-121-84-192t-207-71q-143 0-241 97 14 16 29.5 34t34.5 40 29 34q66-64 142-64 52 0 92 33t40 84q0 57-37 91.5t-94 34.5q-43 0-82.5-21t-72-55-65.5-75-69.5-82-77.5-75-96.5-55T632 778q-122 0-207 70.5T340 1038z"/></svg>