<svg width="1792" height="1792" viewBox="0 0 1792 1792" xmlns="http://www.w3.org/2000/svg"><path d="M320 1168v96q0 16-16 16h-96q-16 0-16-16v-96q0-16 16-16h96q16 0 16 16zm128-256v96q0 16-16 16H208q-16 0-16-16v-96q0-16 16-16h224q16 0 16 16zM320 656v96q0 16-16 16h-96q-16 0-16-16v-96q0-16 16-16h96q16 0 16 16zm1024 512v96q0 16-16 16H464q-16 0-16-16v-96q0-16 16-16h864q16 0 16 16zM704 912v96q0 16-16 16h-96q-16 0-16-16v-96q0-16 16-16h96q16 0 16 16zM576 656v96q0 16-16 16h-96q-16 0-16-16v-96q0-16 16-16h96q16 0 16 16zm384 256v96q0 16-16 16h-96q-16 0-16-16v-96q0-16 16-16h96q16 0 16 16zM832 656v96q0 16-16 16h-96q-16 0-16-16v-96q0-16 16-16h96q16 0 16 16zm384 256v96q0 16-16 16h-96q-16 0-16-16v-96q0-16 16-16h96q16 0 16 16zm384 256v96q0 16-16 16h-96q-16 0-16-16v-96q0-16 16-16h96q16 0 16 16zm-512-512v96q0 16-16 16h-96q-16 0-16-16v-96q0-16 16-16h96q16 0 16 16zm256 0v96q0 16-16 16h-96q-16 0-16-16v-96q0-16 16-16h96q16 0 16 16zm256 0v352q0 16-16 16h-224q-16 0-16-16v-96q0-16 16-16h112V656q0-16 16-16h96q16 0 16 16zm128 752V512H64v896h1664zm128-896v896q0 53-37.5 90.5T1728 1536H64q-53 0-90.5-37.5T-64 1408V512q0-53 37.5-90.5T64 384h1664q53 0 90.5 37.5T1856 512z"/></svg>