<svg width="1792" height="1792" viewBox="0 0 1792 1792" xmlns="http://www.w3.org/2000/svg"><path d="M1728 0q26 0 45 19t19 45v416q0 14-9 23t-23 9h-64q-14 0-23-9t-9-23V218l-229 230 156 156q9 10 9 23t-9 22l-46 46q-9 9-22 9t-23-9l-156-157-99 100q87 104 129.5 236.5T1405 1151q-22 250-200.5 431T776 1788q-163 17-314-39.5t-256.5-162-162-256.5T4 1016q25-250 206-428.5T641 387q144-12 276.5 30.5T1154 547l99-99-156-156q-9-10-9-23t9-22l46-46q9-9 22-9t23 9l156 156 229-229h-261q-14 0-23-9t-9-23V32q0-14 9-23t23-9h416zm-448 1088q0-117-45.5-223.5t-123-184-184-123T704 512t-223.5 45.5-184 123-123 184T128 1088t45.5 223.5 123 184 184 123T704 1664t223.5-45.5 184-123 123-184T1280 1088z"/></svg>