<svg width="1792" height="1792" viewBox="0 0 1792 1792" xmlns="http://www.w3.org/2000/svg"><path d="M1372 1371V638q0-21-15-36t-35-15h-93q-20 0-35 15t-15 36v733q0 20 15 35t35 15h93q20 0 35-15t15-35zm-284 0V840q0-20-15-35t-35-15H937q-20 0-35 15t-15 35v531q0 20 15 35t35 15h101q20 0 35-15t15-35zm-292 0V942q0-20-15-35t-35-15H645q-20 0-35 15t-15 35v429q0 20 15 35t35 15h101q20 0 35-15t15-35zm-292 0v-362q0-20-15-35t-35-15H353q-20 0-35 15t-15 35v362q0 20 15 35t35 15h101q20 0 35-15t15-35zm1416-146q0 166-118 284t-284 118H274q-166 0-284-118t-118-284q0-116 63-214.5T103 862q-10-34-10-73 0-113 80.5-193.5T367 515q102 0 180 67 45-183 194-300t338-117q149 0 275 73.5T1553.5 438t73.5 275q0 66-14 122 135 33 221 142.5t86 247.5z"/></svg>