<svg width="1792" height="1792" viewBox="0 0 1792 1792" xmlns="http://www.w3.org/2000/svg"><path d="M1302 583zm260 204q148 0 253 98.5t105 244.5q0 157-109 261.5T1544 1496q-85 0-162-27.5t-138-73.5-118-106-109-126.5T913.5 1030 805 904 688 798t-136-73.5T393 697q-154 0-251.5 91.5T44 1033q0 157 104 250t263 93q100 0 208-37.5t193-98.5q5-4 21-18.5t30-24 22-9.5q14 0 24.5 10.5T920 1223q0 24-60 77-101 88-234.5 142T365 1496q-133 0-245.5-58t-180-165-67.5-241q0-205 141.5-341T361 555q120 0 226.5 43.5t185.5 113 151.5 153 139 167.5 133.5 153.5 149.5 113T1519 1342q102 0 168.5-61.5T1754 1118q0-95-64.5-159T1530 895q-30 0-81.5 18.5T1380 932q-20 0-35.5-15t-15.5-35q0-18 8.5-57t8.5-59q0-159-107.5-263T972 399q-58 0-111.5 18.5t-84 40.5-55.5 40.5-33 18.5q-15 0-25.5-10.5T652 481q0-19 25-46 59-67 147-103.5t182-36.5q191 0 318 125.5T1451 736q0 37-4 66 57-15 115-15z"/></svg>