<svg width="1792" height="1792" viewBox="0 0 1792 1792" xmlns="http://www.w3.org/2000/svg"><path d="M576 896q-159 0-271.5-112.5T192 512t112.5-271.5T576 128t271.5 112.5T960 512 847.5 783.5 576 896zm960 128h352q13 0 22.5 9.5t9.5 22.5v192q0 13-9.5 22.5t-22.5 9.5h-352v352q0 13-9.5 22.5t-22.5 9.5h-192q-13 0-22.5-9.5t-9.5-22.5v-352H928q-13 0-22.5-9.5T896 1248v-192q0-13 9.5-22.5t22.5-9.5h352V672q0-13 9.5-22.5t22.5-9.5h192q13 0 22.5 9.5t9.5 22.5v352zm-736 224q0 52 38 90t90 38h256v238q-68 50-171 50H139q-121 0-194-69t-73-190q0-53 3.5-103.5t14-109T-84 1084t43-97.5 62-81 85.5-53.5T218 832q19 0 39 17 79 61 154.5 91.5T576 971t164.5-30.5T895 849q20-17 39-17 132 0 217 96H928q-52 0-90 38t-38 90v192z"/></svg>