<?xml version="1.0" encoding="UTF-8" standalone="no"?>
<svg
   xmlns:dc="http://purl.org/dc/elements/1.1/"
   xmlns:cc="http://creativecommons.org/ns#"
   xmlns:rdf="http://www.w3.org/1999/02/22-rdf-syntax-ns#"
   xmlns:svg="http://www.w3.org/2000/svg"
   xmlns="http://www.w3.org/2000/svg"
   xmlns:sodipodi="http://sodipodi.sourceforge.net/DTD/sodipodi-0.dtd"
   xmlns:inkscape="http://www.inkscape.org/namespaces/inkscape"
   inkscape:version="1.0beta2 (2b71d25, 2019-12-03)"
   sodipodi:docname="3dp.svg"
   id="svg2064"
   xml:space="preserve"
   fill="#1f79f2"
   enable-background="new 0 0 1000 1000"
   viewBox="0 0 1000 1000"
   y="0px"
   x="0px"
   version="1.1"><defs
   id="defs2068" /><sodipodi:namedview
   inkscape:current-layer="g2136"
   inkscape:window-maximized="0"
   inkscape:window-y="581"
   inkscape:window-x="956"
   inkscape:cy="308.39897"
   inkscape:cx="1256.9637"
   inkscape:zoom="0.314"
   showgrid="false"
   id="namedview2066"
   inkscape:window-height="766"
   inkscape:window-width="1142"
   inkscape:pageshadow="2"
   inkscape:pageopacity="0"
   guidetolerance="10"
   gridtolerance="10"
   objecttolerance="10"
   borderopacity="1"
   inkscape:document-rotation="0"
   bordercolor="#666666"
   pagecolor="#ffffff" />
<metadata
   id="metadata2050"> Svg Vector Icons : http://www.onlinewebfonts.com/icon <rdf:RDF><cc:Work
     rdf:about=""><dc:format>image/svg+xml</dc:format><dc:type
       rdf:resource="http://purl.org/dc/dcmitype/StillImage" /><dc:title></dc:title></cc:Work></rdf:RDF></metadata>

<g
   transform="matrix(14.636299,0,0,14.636299,-148.94922,-159.98056)"
   id="g2136"><path
     transform="matrix(0.70748401,0,0,0.70748401,9.2905259,9.8266329)"
     id="polygon181"
     style="fill:#1f79f2;fill-opacity:1"
     sodipodi:type="inkscape:offset"
     inkscape:radius="0"
     inkscape:original="M 51 5 L 51 9 L 5 9 L 5 15 L 51 15 L 51 19 L 57 29 L 63 29 L 69 19 L 69 15 L 95 15 L 95 9 L 69 9 L 69 5 L 51 5 z M 57 32 C 57 35.309 54.309 38 51 38 L 26 38 L 25 38 L 25 44 L 26 44 L 51 44 C 57.617 44 63 38.617 63 32 L 57 32 z M 25 47 L 25 53 L 75 53 L 75 47 L 25 47 z M 25 56 L 25 86 L 75 86 L 75 56 L 25 56 z M 5 89 L 5 95 L 95 95 L 95 89 L 5 89 z "
     d="M 51,5 V 9 H 5 v 6 h 46 v 4 l 6,10 h 6 L 69,19 V 15 H 95 V 9 H 69 V 5 Z m 6,27 c 0,3.309 -2.691,6 -6,6 H 26 25 v 6 h 1 25 c 6.617,0 12,-5.383 12,-12 z M 25,47 v 6 h 50 v -6 z m 0,9 V 86 H 75 V 56 Z M 5,89 v 6 h 90 v -6 z" /></g></svg>
