<svg id="Layer_1" data-name="Layer 1" xmlns="http://www.w3.org/2000/svg" viewBox="0 0 1155.49 566.65"><defs><style>.cls-1{fill:#06456c;}.cls-2{fill:#f7941d;}</style></defs><path class="cls-1" d="M726.11,35.65c-27.86-.3-62.85.09-90.71-.34-6.24-.1-9.65,2.18-13.16,6.87Q547.8,141.51,473.06,240.6c-1.24,1.66-2.54,3.28-5,6.43-.88-9.91-1.68-18.28-2.35-26.66q-6.21-77.85-12.34-155.69c-.63-8.15-1.41-16.29-1.72-24.45-.14-3.63-1.31-4.81-4.94-4.81q-52.67.13-105.35-.06c-3.78,0-5.3,2.06-7,4.66q-12,18.12-24.12,36.15c-31.49,46.69-63.7,92.91-94.38,140.11C153.48,312.22,88.72,406.56,25.73,502.08c-.88,1.32-1.71,2.68-2.57,4,1.64,2,3.64,1.12,5.31,1.12,48.24,0,96.46,0,144.69.11,4.18,0,6.69-1.27,9.18-4.68Q260.07,396.18,338,289.92c1.24-1.68,2.55-3.29,4.83-6.23,2.15,13.69,4.15,26.11,6.05,38.54,2.51,16.38,5,32.76,7.4,49.15.59,4,2.07,5.69,6.64,5.68q85.33-.3,170.66,0c4.58,0,6.51-2,8.57-5.47q31.07-51.6,62.38-103.07c1.05-1.74,2.2-3.4,3.31-5.1l1.45.37v29.31c0,34.13-.15,68.27.17,102.4,0,6-1.72,7.58-7.45,7.2-7.46-.5-15,0-22.47-.19-3.65-.1-4.88,1.13-4.86,4.81.12,31.79.2,63.59,0,95.37,0,5.54,3.22,4.52,6.34,4.52,46.13,0,99.38.14,145.5-.18Z"/><path class="cls-2" d="M675,69.45l33.24-31.93a8,8,0,0,1,5.56-2.22l348.31,1.94a8,8,0,0,1,6,2.78l34.53,40.31a7.9,7.9,0,0,1,1.91,5.15V303a7.9,7.9,0,0,1-2.48,5.75l-33.79,32a8,8,0,0,1-5.47,2.18H788.45a7.94,7.94,0,0,0-8,7.93V369a7.94,7.94,0,0,0,8,7.93h307.87a7.94,7.94,0,0,1,8,7.93V501.11a7.94,7.94,0,0,1-8,7.92H715.06a8,8,0,0,1-6.14-2.89l-34.59-42.07a7.92,7.92,0,0,1-1.81-5.08l1.29-199.29a7.92,7.92,0,0,1,1.76-4.93l33.12-41a8,8,0,0,1,6.18-2.95H988.56A7.93,7.93,0,0,0,996.5,203V177.29a7.94,7.94,0,0,0-7.94-7.93H680.66a7.93,7.93,0,0,1-7.94-7.91l-.21-86.26A8,8,0,0,1,675,69.45Z"/></svg>