<?xml version="1.0" encoding="UTF-8" standalone="no"?>
<svg
   xmlns:dc="http://purl.org/dc/elements/1.1/"
   xmlns:cc="http://creativecommons.org/ns#"
   xmlns:rdf="http://www.w3.org/1999/02/22-rdf-syntax-ns#"
   xmlns:svg="http://www.w3.org/2000/svg"
   xmlns="http://www.w3.org/2000/svg"
   xmlns:sodipodi="http://sodipodi.sourceforge.net/DTD/sodipodi-0.dtd"
   xmlns:inkscape="http://www.inkscape.org/namespaces/inkscape"
   inkscape:version="1.0beta2 (2b71d25, 2019-12-03)"
   sodipodi:docname="maslow.svg"
   id="svg2064"
   xml:space="preserve"
   fill="#1f79f2"
   enable-background="new 0 0 1000 1000"
   viewBox="0 0 1000 1000"
   y="0px"
   x="0px"
   version="1.1"><defs
   id="defs2068" /><sodipodi:namedview
   inkscape:snap-global="false"
   inkscape:current-layer="g2958"
   inkscape:window-maximized="0"
   inkscape:window-y="1212"
   inkscape:window-x="346"
   inkscape:cy="690.56457"
   inkscape:cx="1201.2312"
   inkscape:zoom="0.314"
   showgrid="false"
   id="namedview2066"
   inkscape:window-height="766"
   inkscape:window-width="1142"
   inkscape:pageshadow="2"
   inkscape:pageopacity="0"
   guidetolerance="10"
   gridtolerance="10"
   objecttolerance="10"
   borderopacity="1"
   inkscape:document-rotation="0"
   bordercolor="#666666"
   pagecolor="#ffffff" />
<metadata
   id="metadata2050"> Svg Vector Icons : http://www.onlinewebfonts.com/icon <rdf:RDF><cc:Work
     rdf:about=""><dc:format>image/svg+xml</dc:format><dc:type
       rdf:resource="http://purl.org/dc/dcmitype/StillImage" /><dc:title></dc:title></cc:Work></rdf:RDF></metadata>

<g
   transform="matrix(14.636299,0,0,14.636299,-148.94922,-159.98056)"
   id="g2136"><g
     transform="matrix(0.94564096,0,0,0.94564096,2.2895883,2.362593)"
     id="g2958"><g
       id="g2939"><path
         inkscape:connector-curvature="0"
         d="M 61.109985,43.519959 H 69.02002 V 19.349976 H 61.109985 Z M 62.630005,21.5 h 2.599975 v 2 h -2.599975 z m 0,4.140015 h 2.599975 v 2 h -2.599975 z m 0,4.189941 h 2.599975 v 2 h -2.599975 z m 0,4.150025 h 2.599975 v 2 h -2.599975 z"
         id="path2935" /><path
         inkscape:connector-curvature="0"
         d="m 52.440002,11.450012 v 2.659973 h -14.22998 v 2.340027 h -9.910034 v 2.539978 h -5.48999 v 2 h 5.48999 V 23.5 h 9.910034 v 2.380005 h 14.229981 v 24.47998 H 20.979981 V 20.98999 11.450012 H 11.98999 v 38.909973 1 27.190003 h 8.160035 l 5.279968,-11.960022 h 39.140014 l 5.279969,11.960022 h 8.160034 v -26.190003 -1 -1 -38.909973 z m 6.669983,5.899964 H 71.02002 V 45.519959 H 59.109985 Z m -18.899963,6.530029 v -7.77002 h 12.229981 v 7.77002 z M 76.01001,76.549988 H 71.159973 L 65.880005,64.589966 H 24.119995 L 18.840027,76.549988 H 13.98999 V 52.359985 h 6.98999 55.03003 z"
         id="path2937" /></g></g></g></svg>
